# Blender 4.2.0
# www.blender.org
mtllib destiny.mtl
o Cylinder
v 0.000000 1.000000 -0.250000
v 0.000000 1.000000 0.250000
v 0.195090 0.980785 -0.250000
v 0.195090 0.980785 0.250000
v 0.382683 0.923880 -0.250000
v 0.382683 0.923880 0.250000
v 0.555570 0.831470 -0.250000
v 0.555570 0.831470 0.250000
v 0.707107 0.707107 -0.250000
v 0.707107 0.707107 0.250000
v 0.831470 0.555570 -0.250000
v 0.831470 0.555570 0.250000
v 0.923880 0.382683 -0.250000
v 0.923880 0.382683 0.250000
v 0.980785 0.195090 -0.250000
v 0.980785 0.195090 0.250000
v 1.000000 0.000000 -0.250000
v 1.000000 -0.000000 0.250000
v 0.980785 -0.195090 -0.250000
v 0.980785 -0.195090 0.250000
v 0.923880 -0.382683 -0.250000
v 0.923880 -0.382683 0.250000
v 0.831470 -0.555570 -0.250000
v 0.831470 -0.555570 0.250000
v 0.707107 -0.707107 -0.250000
v 0.707107 -0.707107 0.250000
v 0.555570 -0.831470 -0.250000
v 0.555570 -0.831470 0.250000
v 0.382683 -0.923880 -0.250000
v 0.382683 -0.923880 0.250000
v 0.195090 -1.025642 -0.250000
v 0.195090 -1.025642 0.250000
v 0.000000 -1.294775 -0.250000
v 0.000000 -1.294775 0.250000
v -0.195090 -1.025642 -0.250000
v -0.195090 -1.025642 0.250000
v -0.382683 -0.923880 -0.250000
v -0.382683 -0.923880 0.250000
v -0.555570 -0.831470 -0.250000
v -0.555570 -0.831470 0.250000
v -0.707107 -0.707107 -0.250000
v -0.707107 -0.707107 0.250000
v -0.831470 -0.555570 -0.250000
v -0.831470 -0.555570 0.250000
v -0.923880 -0.382683 -0.250000
v -0.923880 -0.382683 0.250000
v -0.980785 -0.195090 -0.250000
v -0.980785 -0.195090 0.250000
v -1.000000 0.000000 -0.250000
v -1.000000 -0.000000 0.250000
v -0.980785 0.195090 -0.250000
v -0.980785 0.195090 0.250000
v -0.923880 0.382683 -0.250000
v -0.923880 0.382683 0.250000
v -0.831470 0.555570 -0.250000
v -0.831470 0.555570 0.250000
v -0.707107 0.707107 -0.250000
v -0.707107 0.707107 0.250000
v -0.555570 0.831470 -0.250000
v -0.555570 0.831470 0.250000
v -0.382683 0.923880 -0.250000
v -0.382683 0.923880 0.250000
v -0.195090 0.980785 -0.250000
v -0.195090 0.980785 0.250000
vn -0.0000 0.2565 -0.9665
vn -0.0000 0.2565 0.9665
vn 0.0500 0.2516 -0.9665
vn 0.0500 0.2516 0.9665
vn 0.0982 0.2370 -0.9665
vn 0.0982 0.2370 0.9665
vn 0.1425 0.2133 -0.9665
vn 0.1425 0.2133 0.9665
vn 0.1814 0.1814 -0.9665
vn 0.1814 0.1814 0.9665
vn 0.2133 0.1425 -0.9665
vn 0.2133 0.1425 0.9665
vn 0.2370 0.0982 -0.9665
vn 0.2370 0.0982 0.9665
vn 0.2516 0.0500 -0.9665
vn 0.2516 0.0500 0.9665
vn 0.2565 -0.0000 -0.9665
vn 0.2565 -0.0000 0.9665
vn 0.2516 -0.0500 -0.9665
vn 0.2516 -0.0500 0.9665
vn 0.2370 -0.0982 -0.9665
vn 0.2370 -0.0982 0.9665
vn 0.2133 -0.1425 -0.9665
vn 0.2133 -0.1425 0.9665
vn 0.1814 -0.1814 -0.9665
vn 0.1814 -0.1814 0.9665
vn 0.1425 -0.2133 -0.9665
vn 0.1425 -0.2133 0.9665
vn 0.1152 -0.2139 -0.9700
vn 0.1152 -0.2139 0.9700
vn 0.1803 -0.2055 -0.9619
vn 0.1803 -0.2055 0.9619
vn -0.0000 -0.3449 -0.9386
vn -0.0000 -0.3449 0.9386
vn -0.1803 -0.2055 -0.9619
vn -0.1803 -0.2055 0.9619
vn -0.1152 -0.2139 -0.9700
vn -0.1152 -0.2139 0.9700
vn -0.1425 -0.2133 -0.9665
vn -0.1425 -0.2133 0.9665
vn -0.1814 -0.1814 -0.9665
vn -0.1814 -0.1814 0.9665
vn -0.2133 -0.1425 -0.9665
vn -0.2133 -0.1425 0.9665
vn -0.2370 -0.0982 -0.9665
vn -0.2370 -0.0982 0.9665
vn -0.2516 -0.0500 -0.9665
vn -0.2516 -0.0500 0.9665
vn -0.2565 -0.0000 -0.9665
vn -0.2565 -0.0000 0.9665
vn -0.2516 0.0500 -0.9665
vn -0.2516 0.0500 0.9665
vn -0.2370 0.0982 -0.9665
vn -0.2370 0.0982 0.9665
vn -0.2133 0.1425 -0.9665
vn -0.2133 0.1425 0.9665
vn -0.1814 0.1814 -0.9665
vn -0.1814 0.1814 0.9665
vn -0.1425 0.2133 -0.9665
vn -0.1425 0.2133 0.9665
vn -0.0982 0.2370 -0.9665
vn -0.0982 0.2370 0.9665
vn -0.0500 0.2516 -0.9665
vn -0.0500 0.2516 0.9665
vt 0.874607 0.385264
vt 0.874607 0.032019
vt 0.909231 0.032019
vt 0.909231 0.385264
vt 0.874999 0.038513
vt 0.874999 0.391759
vt 0.906987 0.038513
vt 0.906987 0.391759
vt 0.858793 0.368174
vt 0.858793 0.014929
vt 0.887581 0.014929
vt 0.887581 0.368174
vt 0.851379 0.021423
vt 0.851379 0.374669
vt 0.885337 0.021423
vt 0.885337 0.374669
vt 0.919961 0.021423
vt 0.919961 0.374669
vt 0.953920 0.021423
vt 0.953920 0.374669
vt 0.985909 0.021423
vt 0.985909 0.374669
vt 0.882680 0.375523
vt 0.882680 0.022277
vt 0.911719 0.022277
vt 0.911719 0.375523
vt 0.875687 0.028771
vt 0.875687 0.382017
vt 0.909732 0.028771
vt 0.909732 0.382017
vt 0.863173 0.019030
vt 0.863173 0.372275
vt 0.897040 0.019030
vt 0.897040 0.372275
vt 0.865766 0.025524
vt 0.865766 0.378770
vt 0.922749 0.025524
vt 0.922749 0.378770
vt 0.859066 0.377793
vt 0.859066 0.024548
vt 0.917440 0.024548
vt 0.917440 0.377793
vt 0.854793 0.028639
vt 0.854793 0.381884
vt 0.887370 0.028639
vt 0.887370 0.381884
vt 0.921609 0.028639
vt 0.921609 0.381884
vt 0.956194 0.028639
vt 0.956194 0.381884
vt 0.989798 0.028639
vt 0.989798 0.381884
vt 0.887517 0.390067
vt 0.887517 0.036821
vt 0.918847 0.036821
vt 0.918847 0.390067
vt 0.866061 0.375101
vt 0.866061 0.021855
vt 0.894850 0.021855
vt 0.894850 0.375101
vt 0.926838 0.021855
vt 0.926838 0.375101
vt 0.960797 0.021855
vt 0.960797 0.375101
vt 0.913596 0.017764
vt 0.913596 0.371010
vt 0.849366 0.021855
vt 0.849366 0.375101
vt 0.881354 0.021855
vt 0.881354 0.375101
vt 0.867132 0.366919
vt 0.867132 0.013673
vt 0.895921 0.013673
vt 0.895921 0.366919
vt 0.594520 0.989959
vt 0.510164 1.000147
vt 0.425441 0.993683
vt 0.343607 0.970814
vt 0.267807 0.932420
vt 0.200953 0.879976
vt 0.145616 0.815497
vt 0.103921 0.741461
vt 0.077471 0.660713
vt 0.067283 0.576357
vt 0.073747 0.491634
vt 0.096615 0.409800
vt 0.135010 0.334000
vt 0.187454 0.267147
vt 0.251933 0.211809
vt 0.325969 0.170114
vt 0.406288 0.124226
vt 0.488259 0.005739
vt 0.575368 0.120502
vt 0.657630 0.162808
vt 0.733430 0.201203
vt 0.800283 0.253647
vt 0.855621 0.318126
vt 0.897315 0.392162
vt 0.923765 0.472910
vt 0.933954 0.557266
vt 0.927490 0.641989
vt 0.904621 0.723823
vt 0.866227 0.799623
vt 0.813783 0.866476
vt 0.749304 0.921814
vt 0.675268 0.963508
vt 0.927910 0.013673
vt 0.927910 0.366919
vt 0.961869 0.013673
vt 0.961869 0.366919
vt 0.498291 0.997999
vt 0.413985 0.989348
vt 0.332987 0.964417
vt 0.258410 0.924162
vt 0.193118 0.870132
vt 0.139622 0.804402
vt 0.099977 0.729498
vt 0.075706 0.648300
vt 0.067744 0.563926
vt 0.076394 0.479621
vt 0.101326 0.398623
vt 0.141580 0.324045
vt 0.195611 0.258753
vt 0.261341 0.205257
vt 0.336244 0.165612
vt 0.417522 0.121950
vt 0.502336 0.005945
vt 0.586201 0.122637
vt 0.667120 0.166961
vt 0.741698 0.207216
vt 0.806989 0.261246
vt 0.860485 0.326976
vt 0.900130 0.401879
vt 0.924401 0.483078
vt 0.932364 0.567451
vt 0.923713 0.651757
vt 0.898781 0.732755
vt 0.858527 0.807333
vt 0.804497 0.872624
vt 0.738767 0.926121
vt 0.663863 0.965766
vt 0.582664 0.990036
s 1
usemtl Material.001
f 1/1/1 2/2/2 4/3/4 3/4/3
f 3/4/3 4/3/4 6/5/6 5/6/5
f 5/6/5 6/5/6 8/7/8 7/8/7
f 7/9/7 8/10/8 10/11/10 9/12/9
f 9/12/9 10/11/10 12/13/12 11/14/11
f 11/14/11 12/13/12 14/15/14 13/16/13
f 13/16/13 14/15/14 16/17/16 15/18/15
f 15/18/15 16/17/16 18/19/18 17/20/17
f 17/20/17 18/19/18 20/21/20 19/22/19
f 19/23/19 20/24/20 22/25/22 21/26/21
f 21/26/21 22/25/22 24/27/24 23/28/23
f 23/28/23 24/27/24 26/29/26 25/30/25
f 25/30/25 26/29/26 28/31/28 27/32/27
f 27/32/27 28/31/28 30/33/30 29/34/29
f 29/34/29 30/33/30 32/35/32 31/36/31
f 31/36/31 32/35/32 34/37/34 33/38/33
f 33/39/33 34/40/34 36/41/36 35/42/35
f 35/42/35 36/41/36 38/43/38 37/44/37
f 37/44/37 38/43/38 40/45/40 39/46/39
f 39/46/39 40/45/40 42/47/42 41/48/41
f 41/48/41 42/47/42 44/49/44 43/50/43
f 43/50/43 44/49/44 46/51/46 45/52/45
f 45/53/45 46/54/46 48/55/48 47/56/47
f 47/57/47 48/58/48 50/59/50 49/60/49
f 49/60/49 50/59/50 52/61/52 51/62/51
f 51/62/51 52/61/52 54/63/54 53/64/53
f 53/64/53 54/63/54 56/65/56 55/66/55
f 55/66/55 56/65/56 58/67/58 57/68/57
f 57/68/57 58/67/58 60/69/60 59/70/59
f 59/71/59 60/72/60 62/73/62 61/74/61
f 4/75/4 2/76/2 64/77/64 62/78/62 60/79/60 58/80/58 56/81/56 54/82/54 52/83/52 50/84/50 48/85/48 46/86/46 44/87/44 42/88/42 40/89/40 38/90/38 36/91/36 34/92/34 32/93/32 30/94/30 28/95/28 26/96/26 24/97/24 22/98/22 20/99/20 18/100/18 16/101/16 14/102/14 12/103/12 10/104/10 8/105/8 6/106/6
f 61/74/61 62/73/62 64/107/64 63/108/63
f 63/108/63 64/107/64 2/109/2 1/110/1
f 1/111/1 3/112/3 5/113/5 7/114/7 9/115/9 11/116/11 13/117/13 15/118/15 17/119/17 19/120/19 21/121/21 23/122/23 25/123/25 27/124/27 29/125/29 31/126/31 33/127/33 35/128/35 37/129/37 39/130/39 41/131/41 43/132/43 45/133/45 47/134/47 49/135/49 51/136/51 53/137/53 55/138/55 57/139/57 59/140/59 61/141/61 63/142/63
